solid ascii
  facet normal 9.983082e-001 -5.814483e-002 0.000000e+000
    outer loop
      vertex   -7.052717e+001 1.055512e+002 0.000000e+000
      vertex   -7.052717e+001 1.055512e+002 3.000000e+000
      vertex   -7.053833e+001 1.053597e+002 0.000000e+000
    endloop
  endfacet
  facet normal 9.848078e-001 -1.736482e-001 0.000000e+000
    outer loop
      vertex   -7.052717e+001 1.055512e+002 0.000000e+000
      vertex   -7.049385e+001 1.057402e+002 3.000000e+000
      vertex   -7.052717e+001 1.055512e+002 3.000000e+000
    endloop
  endfacet
  facet normal 9.848078e-001 -1.736482e-001 0.000000e+000
    outer loop
      vertex   -7.052717e+001 1.055512e+002 0.000000e+000
      vertex   -7.049385e+001 1.057402e+002 0.000000e+000
      vertex   -7.049385e+001 1.057402e+002 3.000000e+000
    endloop
  endfacet
  facet normal 9.579895e-001 -2.868032e-001 0.000000e+000
    outer loop
      vertex   -7.049385e+001 1.057402e+002 3.000000e+000
      vertex   -7.049385e+001 1.057402e+002 0.000000e+000
      vertex   -7.043882e+001 1.059240e+002 3.000000e+000
    endloop
  endfacet
  facet normal 9.579895e-001 -2.868032e-001 0.000000e+000
    outer loop
      vertex   -7.043882e+001 1.059240e+002 3.000000e+000
      vertex   -7.049385e+001 1.057402e+002 0.000000e+000
      vertex   -7.043882e+001 1.059240e+002 0.000000e+000
    endloop
  endfacet
  facet normal 9.182161e-001 -3.960798e-001 0.000000e+000
    outer loop
      vertex   -7.036282e+001 1.061002e+002 3.000000e+000
      vertex   -7.043882e+001 1.059240e+002 0.000000e+000
      vertex   -7.036282e+001 1.061002e+002 0.000000e+000
    endloop
  endfacet
  facet normal 8.660254e-001 -5.000000e-001 0.000000e+000
    outer loop
      vertex   -7.026688e+001 1.062664e+002 3.000000e+000
      vertex   -7.036282e+001 1.061002e+002 0.000000e+000
      vertex   -7.026688e+001 1.062664e+002 0.000000e+000
    endloop
  endfacet
  facet normal 8.021232e-001 -5.971586e-001 0.000000e+000
    outer loop
      vertex   -7.015230e+001 1.064203e+002 3.000000e+000
      vertex   -7.026688e+001 1.062664e+002 0.000000e+000
      vertex   -7.015230e+001 1.064203e+002 0.000000e+000
    endloop
  endfacet
  facet normal 7.273736e-001 -6.862416e-001 0.000000e+000
    outer loop
      vertex   -7.002063e+001 1.065598e+002 3.000000e+000
      vertex   -7.015230e+001 1.064203e+002 0.000000e+000
      vertex   -7.002063e+001 1.065598e+002 0.000000e+000
    endloop
  endfacet
  facet normal 6.427876e-001 -7.660444e-001 0.000000e+000
    outer loop
      vertex   -6.987364e+001 1.066832e+002 3.000000e+000
      vertex   -7.002063e+001 1.065598e+002 0.000000e+000
      vertex   -6.987364e+001 1.066832e+002 0.000000e+000
    endloop
  endfacet
  facet normal 5.495090e-001 -8.354878e-001 0.000000e+000
    outer loop
      vertex   -6.971333e+001 1.067886e+002 3.000000e+000
      vertex   -6.987364e+001 1.066832e+002 0.000000e+000
      vertex   -6.971333e+001 1.067886e+002 0.000000e+000
    endloop
  endfacet
  facet normal 4.487992e-001 -8.936326e-001 0.000000e+000
    outer loop
      vertex   -6.954186e+001 1.068747e+002 3.000000e+000
      vertex   -6.971333e+001 1.067886e+002 0.000000e+000
      vertex   -6.954186e+001 1.068747e+002 0.000000e+000
    endloop
  endfacet
  facet normal 3.420201e-001 -9.396926e-001 0.000000e+000
    outer loop
      vertex   -6.936155e+001 1.069403e+002 3.000000e+000
      vertex   -6.954186e+001 1.068747e+002 0.000000e+000
      vertex   -6.936155e+001 1.069403e+002 0.000000e+000
    endloop
  endfacet
  facet normal 2.306159e-001 -9.730449e-001 0.000000e+000
    outer loop
      vertex   -6.917485e+001 1.069846e+002 3.000000e+000
      vertex   -6.936155e+001 1.069403e+002 0.000000e+000
      vertex   -6.917485e+001 1.069846e+002 0.000000e+000
    endloop
  endfacet
  facet normal 1.160929e-001 -9.932384e-001 0.000000e+000
    outer loop
      vertex   -6.898427e+001 1.070069e+002 3.000000e+000
      vertex   -6.917485e+001 1.069846e+002 0.000000e+000
      vertex   -6.898427e+001 1.070069e+002 0.000000e+000
    endloop
  endfacet
  facet normal 0.000000e+000 -1.000000e+000 -0.000000e+000
    outer loop
      vertex   -6.879239e+001 1.070069e+002 3.000000e+000
      vertex   -6.898427e+001 1.070069e+002 0.000000e+000
      vertex   -6.879239e+001 1.070069e+002 0.000000e+000
    endloop
  endfacet
  facet normal -1.160929e-001 -9.932384e-001 0.000000e+000
    outer loop
      vertex   -6.860181e+001 1.069846e+002 3.000000e+000
      vertex   -6.879239e+001 1.070069e+002 0.000000e+000
      vertex   -6.860181e+001 1.069846e+002 0.000000e+000
    endloop
  endfacet
  facet normal -2.306159e-001 -9.730449e-001 0.000000e+000
    outer loop
      vertex   -6.841510e+001 1.069403e+002 3.000000e+000
      vertex   -6.860181e+001 1.069846e+002 0.000000e+000
      vertex   -6.841510e+001 1.069403e+002 0.000000e+000
    endloop
  endfacet
  facet normal -3.420201e-001 -9.396926e-001 0.000000e+000
    outer loop
      vertex   -6.823480e+001 1.068747e+002 3.000000e+000
      vertex   -6.841510e+001 1.069403e+002 0.000000e+000
      vertex   -6.823480e+001 1.068747e+002 0.000000e+000
    endloop
  endfacet
  facet normal -4.487992e-001 -8.936326e-001 0.000000e+000
    outer loop
      vertex   -6.806333e+001 1.067886e+002 3.000000e+000
      vertex   -6.823480e+001 1.068747e+002 0.000000e+000
      vertex   -6.806333e+001 1.067886e+002 0.000000e+000
    endloop
  endfacet
  facet normal -5.495090e-001 -8.354878e-001 0.000000e+000
    outer loop
      vertex   -6.790302e+001 1.066832e+002 3.000000e+000
      vertex   -6.806333e+001 1.067886e+002 0.000000e+000
      vertex   -6.790302e+001 1.066832e+002 0.000000e+000
    endloop
  endfacet
  facet normal -6.427876e-001 -7.660444e-001 0.000000e+000
    outer loop
      vertex   -6.775603e+001 1.065598e+002 3.000000e+000
      vertex   -6.790302e+001 1.066832e+002 0.000000e+000
      vertex   -6.775603e+001 1.065598e+002 0.000000e+000
    endloop
  endfacet
  facet normal -7.273736e-001 -6.862416e-001 0.000000e+000
    outer loop
      vertex   -6.762436e+001 1.064203e+002 3.000000e+000
      vertex   -6.775603e+001 1.065598e+002 0.000000e+000
      vertex   -6.762436e+001 1.064203e+002 0.000000e+000
    endloop
  endfacet
  facet normal -8.021232e-001 -5.971586e-001 0.000000e+000
    outer loop
      vertex   -6.750977e+001 1.062664e+002 3.000000e+000
      vertex   -6.762436e+001 1.064203e+002 0.000000e+000
      vertex   -6.750977e+001 1.062664e+002 0.000000e+000
    endloop
  endfacet
  facet normal -8.660254e-001 -5.000000e-001 0.000000e+000
    outer loop
      vertex   -6.741383e+001 1.061002e+002 3.000000e+000
      vertex   -6.750977e+001 1.062664e+002 0.000000e+000
      vertex   -6.741383e+001 1.061002e+002 0.000000e+000
    endloop
  endfacet
  facet normal -9.182161e-001 -3.960798e-001 0.000000e+000
    outer loop
      vertex   -6.733784e+001 1.059240e+002 3.000000e+000
      vertex   -6.741383e+001 1.061002e+002 0.000000e+000
      vertex   -6.733784e+001 1.059240e+002 0.000000e+000
    endloop
  endfacet
  facet normal -9.579895e-001 -2.868032e-001 0.000000e+000
    outer loop
      vertex   -6.728280e+001 1.057402e+002 3.000000e+000
      vertex   -6.733784e+001 1.059240e+002 0.000000e+000
      vertex   -6.728280e+001 1.057402e+002 0.000000e+000
    endloop
  endfacet
  facet normal -9.848078e-001 -1.736482e-001 0.000000e+000
    outer loop
      vertex   -6.724949e+001 1.055512e+002 3.000000e+000
      vertex   -6.728280e+001 1.057402e+002 0.000000e+000
      vertex   -6.724949e+001 1.055512e+002 0.000000e+000
    endloop
  endfacet
  facet normal -9.983082e-001 -5.814483e-002 0.000000e+000
    outer loop
      vertex   -6.723833e+001 1.053597e+002 3.000000e+000
      vertex   -6.724949e+001 1.055512e+002 0.000000e+000
      vertex   -6.723833e+001 1.053597e+002 0.000000e+000
    endloop
  endfacet
  facet normal -9.983082e-001 5.814483e-002 0.000000e+000
    outer loop
      vertex   -6.724949e+001 1.051681e+002 3.000000e+000
      vertex   -6.723833e+001 1.053597e+002 0.000000e+000
      vertex   -6.724949e+001 1.051681e+002 0.000000e+000
    endloop
  endfacet
  facet normal -9.848078e-001 1.736482e-001 0.000000e+000
    outer loop
      vertex   -6.728280e+001 1.049791e+002 3.000000e+000
      vertex   -6.724949e+001 1.051681e+002 0.000000e+000
      vertex   -6.728280e+001 1.049791e+002 0.000000e+000
    endloop
  endfacet
  facet normal -9.579895e-001 2.868032e-001 0.000000e+000
    outer loop
      vertex   -6.733784e+001 1.047953e+002 3.000000e+000
      vertex   -6.728280e+001 1.049791e+002 0.000000e+000
      vertex   -6.733784e+001 1.047953e+002 0.000000e+000
    endloop
  endfacet
  facet normal -9.182161e-001 3.960798e-001 0.000000e+000
    outer loop
      vertex   -6.741383e+001 1.046191e+002 3.000000e+000
      vertex   -6.733784e+001 1.047953e+002 0.000000e+000
      vertex   -6.741383e+001 1.046191e+002 0.000000e+000
    endloop
  endfacet
  facet normal -8.660254e-001 5.000000e-001 0.000000e+000
    outer loop
      vertex   -6.750977e+001 1.044530e+002 3.000000e+000
      vertex   -6.741383e+001 1.046191e+002 0.000000e+000
      vertex   -6.750977e+001 1.044530e+002 0.000000e+000
    endloop
  endfacet
  facet normal -8.021232e-001 5.971586e-001 0.000000e+000
    outer loop
      vertex   -6.762436e+001 1.042991e+002 3.000000e+000
      vertex   -6.750977e+001 1.044530e+002 0.000000e+000
      vertex   -6.762436e+001 1.042991e+002 0.000000e+000
    endloop
  endfacet
  facet normal -7.273736e-001 6.862416e-001 0.000000e+000
    outer loop
      vertex   -6.775603e+001 1.041595e+002 3.000000e+000
      vertex   -6.762436e+001 1.042991e+002 0.000000e+000
      vertex   -6.775603e+001 1.041595e+002 0.000000e+000
    endloop
  endfacet
  facet normal -6.427876e-001 7.660444e-001 0.000000e+000
    outer loop
      vertex   -6.790302e+001 1.040362e+002 3.000000e+000
      vertex   -6.775603e+001 1.041595e+002 0.000000e+000
      vertex   -6.790302e+001 1.040362e+002 0.000000e+000
    endloop
  endfacet
  facet normal -5.495090e-001 8.354878e-001 0.000000e+000
    outer loop
      vertex   -6.806333e+001 1.039307e+002 3.000000e+000
      vertex   -6.790302e+001 1.040362e+002 0.000000e+000
      vertex   -6.806333e+001 1.039307e+002 0.000000e+000
    endloop
  endfacet
  facet normal -4.487992e-001 8.936326e-001 0.000000e+000
    outer loop
      vertex   -6.823480e+001 1.038446e+002 3.000000e+000
      vertex   -6.806333e+001 1.039307e+002 0.000000e+000
      vertex   -6.823480e+001 1.038446e+002 0.000000e+000
    endloop
  endfacet
  facet normal -3.420201e-001 9.396926e-001 0.000000e+000
    outer loop
      vertex   -6.841510e+001 1.037790e+002 3.000000e+000
      vertex   -6.823480e+001 1.038446e+002 0.000000e+000
      vertex   -6.841510e+001 1.037790e+002 0.000000e+000
    endloop
  endfacet
  facet normal -2.306159e-001 9.730449e-001 0.000000e+000
    outer loop
      vertex   -6.860181e+001 1.037347e+002 3.000000e+000
      vertex   -6.841510e+001 1.037790e+002 0.000000e+000
      vertex   -6.860181e+001 1.037347e+002 0.000000e+000
    endloop
  endfacet
  facet normal -1.160929e-001 9.932384e-001 0.000000e+000
    outer loop
      vertex   -6.879239e+001 1.037125e+002 3.000000e+000
      vertex   -6.860181e+001 1.037347e+002 0.000000e+000
      vertex   -6.879239e+001 1.037125e+002 0.000000e+000
    endloop
  endfacet
  facet normal 0.000000e+000 1.000000e+000 0.000000e+000
    outer loop
      vertex   -6.898427e+001 1.037125e+002 3.000000e+000
      vertex   -6.879239e+001 1.037125e+002 0.000000e+000
      vertex   -6.898427e+001 1.037125e+002 0.000000e+000
    endloop
  endfacet
  facet normal 1.160929e-001 9.932384e-001 0.000000e+000
    outer loop
      vertex   -6.917485e+001 1.037347e+002 3.000000e+000
      vertex   -6.898427e+001 1.037125e+002 0.000000e+000
      vertex   -6.917485e+001 1.037347e+002 0.000000e+000
    endloop
  endfacet
  facet normal 2.306159e-001 9.730449e-001 0.000000e+000
    outer loop
      vertex   -6.936155e+001 1.037790e+002 3.000000e+000
      vertex   -6.917485e+001 1.037347e+002 0.000000e+000
      vertex   -6.936155e+001 1.037790e+002 0.000000e+000
    endloop
  endfacet
  facet normal 3.420201e-001 9.396926e-001 0.000000e+000
    outer loop
      vertex   -6.954186e+001 1.038446e+002 3.000000e+000
      vertex   -6.936155e+001 1.037790e+002 0.000000e+000
      vertex   -6.954186e+001 1.038446e+002 0.000000e+000
    endloop
  endfacet
  facet normal 4.487992e-001 8.936326e-001 0.000000e+000
    outer loop
      vertex   -6.971333e+001 1.039307e+002 3.000000e+000
      vertex   -6.954186e+001 1.038446e+002 0.000000e+000
      vertex   -6.971333e+001 1.039307e+002 0.000000e+000
    endloop
  endfacet
  facet normal 5.495090e-001 8.354878e-001 0.000000e+000
    outer loop
      vertex   -6.987364e+001 1.040362e+002 3.000000e+000
      vertex   -6.971333e+001 1.039307e+002 0.000000e+000
      vertex   -6.987364e+001 1.040362e+002 0.000000e+000
    endloop
  endfacet
  facet normal 6.427876e-001 7.660444e-001 0.000000e+000
    outer loop
      vertex   -7.002063e+001 1.041595e+002 3.000000e+000
      vertex   -6.987364e+001 1.040362e+002 0.000000e+000
      vertex   -7.002063e+001 1.041595e+002 0.000000e+000
    endloop
  endfacet
  facet normal 7.273736e-001 6.862416e-001 0.000000e+000
    outer loop
      vertex   -7.015230e+001 1.042991e+002 3.000000e+000
      vertex   -7.002063e+001 1.041595e+002 0.000000e+000
      vertex   -7.015230e+001 1.042991e+002 0.000000e+000
    endloop
  endfacet
  facet normal 8.021232e-001 5.971586e-001 0.000000e+000
    outer loop
      vertex   -7.026688e+001 1.044530e+002 3.000000e+000
      vertex   -7.015230e+001 1.042991e+002 0.000000e+000
      vertex   -7.026688e+001 1.044530e+002 0.000000e+000
    endloop
  endfacet
  facet normal 8.660254e-001 5.000000e-001 0.000000e+000
    outer loop
      vertex   -7.036282e+001 1.046191e+002 3.000000e+000
      vertex   -7.026688e+001 1.044530e+002 0.000000e+000
      vertex   -7.036282e+001 1.046191e+002 0.000000e+000
    endloop
  endfacet
  facet normal 9.182161e-001 3.960798e-001 0.000000e+000
    outer loop
      vertex   -7.043882e+001 1.047953e+002 3.000000e+000
      vertex   -7.036282e+001 1.046191e+002 0.000000e+000
      vertex   -7.043882e+001 1.047953e+002 0.000000e+000
    endloop
  endfacet
  facet normal 9.579895e-001 2.868032e-001 0.000000e+000
    outer loop
      vertex   -7.049385e+001 1.049791e+002 3.000000e+000
      vertex   -7.043882e+001 1.047953e+002 0.000000e+000
      vertex   -7.049385e+001 1.049791e+002 0.000000e+000
    endloop
  endfacet
  facet normal 9.848078e-001 1.736482e-001 0.000000e+000
    outer loop
      vertex   -7.052717e+001 1.051681e+002 3.000000e+000
      vertex   -7.049385e+001 1.049791e+002 0.000000e+000
      vertex   -7.052717e+001 1.051681e+002 0.000000e+000
    endloop
  endfacet
  facet normal 9.983082e-001 5.814483e-002 0.000000e+000
    outer loop
      vertex   -7.053833e+001 1.053597e+002 3.000000e+000
      vertex   -7.052717e+001 1.051681e+002 0.000000e+000
      vertex   -7.053833e+001 1.053597e+002 0.000000e+000
    endloop
  endfacet
  facet normal 9.983082e-001 -5.814483e-002 0.000000e+000
    outer loop
      vertex   -7.052717e+001 1.055512e+002 3.000000e+000
      vertex   -7.053833e+001 1.053597e+002 3.000000e+000
      vertex   -7.053833e+001 1.053597e+002 0.000000e+000
    endloop
  endfacet
  facet normal 9.182161e-001 -3.960798e-001 0.000000e+000
    outer loop
      vertex   -7.043882e+001 1.059240e+002 3.000000e+000
      vertex   -7.043882e+001 1.059240e+002 0.000000e+000
      vertex   -7.036282e+001 1.061002e+002 3.000000e+000
    endloop
  endfacet
  facet normal 8.660254e-001 -5.000000e-001 0.000000e+000
    outer loop
      vertex   -7.036282e+001 1.061002e+002 3.000000e+000
      vertex   -7.036282e+001 1.061002e+002 0.000000e+000
      vertex   -7.026688e+001 1.062664e+002 3.000000e+000
    endloop
  endfacet
  facet normal 8.021232e-001 -5.971586e-001 0.000000e+000
    outer loop
      vertex   -7.026688e+001 1.062664e+002 3.000000e+000
      vertex   -7.026688e+001 1.062664e+002 0.000000e+000
      vertex   -7.015230e+001 1.064203e+002 3.000000e+000
    endloop
  endfacet
  facet normal 7.273736e-001 -6.862416e-001 0.000000e+000
    outer loop
      vertex   -7.015230e+001 1.064203e+002 3.000000e+000
      vertex   -7.015230e+001 1.064203e+002 0.000000e+000
      vertex   -7.002063e+001 1.065598e+002 3.000000e+000
    endloop
  endfacet
  facet normal 6.427876e-001 -7.660444e-001 0.000000e+000
    outer loop
      vertex   -7.002063e+001 1.065598e+002 3.000000e+000
      vertex   -7.002063e+001 1.065598e+002 0.000000e+000
      vertex   -6.987364e+001 1.066832e+002 3.000000e+000
    endloop
  endfacet
  facet normal 5.495090e-001 -8.354878e-001 0.000000e+000
    outer loop
      vertex   -6.987364e+001 1.066832e+002 3.000000e+000
      vertex   -6.987364e+001 1.066832e+002 0.000000e+000
      vertex   -6.971333e+001 1.067886e+002 3.000000e+000
    endloop
  endfacet
  facet normal 4.487992e-001 -8.936326e-001 0.000000e+000
    outer loop
      vertex   -6.971333e+001 1.067886e+002 3.000000e+000
      vertex   -6.971333e+001 1.067886e+002 0.000000e+000
      vertex   -6.954186e+001 1.068747e+002 3.000000e+000
    endloop
  endfacet
  facet normal 3.420201e-001 -9.396926e-001 0.000000e+000
    outer loop
      vertex   -6.954186e+001 1.068747e+002 3.000000e+000
      vertex   -6.954186e+001 1.068747e+002 0.000000e+000
      vertex   -6.936155e+001 1.069403e+002 3.000000e+000
    endloop
  endfacet
  facet normal 2.306159e-001 -9.730449e-001 0.000000e+000
    outer loop
      vertex   -6.936155e+001 1.069403e+002 3.000000e+000
      vertex   -6.936155e+001 1.069403e+002 0.000000e+000
      vertex   -6.917485e+001 1.069846e+002 3.000000e+000
    endloop
  endfacet
  facet normal 1.160929e-001 -9.932384e-001 0.000000e+000
    outer loop
      vertex   -6.917485e+001 1.069846e+002 3.000000e+000
      vertex   -6.917485e+001 1.069846e+002 0.000000e+000
      vertex   -6.898427e+001 1.070069e+002 3.000000e+000
    endloop
  endfacet
  facet normal 0.000000e+000 -1.000000e+000 0.000000e+000
    outer loop
      vertex   -6.898427e+001 1.070069e+002 3.000000e+000
      vertex   -6.898427e+001 1.070069e+002 0.000000e+000
      vertex   -6.879239e+001 1.070069e+002 3.000000e+000
    endloop
  endfacet
  facet normal -1.160929e-001 -9.932384e-001 -0.000000e+000
    outer loop
      vertex   -6.879239e+001 1.070069e+002 3.000000e+000
      vertex   -6.879239e+001 1.070069e+002 0.000000e+000
      vertex   -6.860181e+001 1.069846e+002 3.000000e+000
    endloop
  endfacet
  facet normal -2.306159e-001 -9.730449e-001 -0.000000e+000
    outer loop
      vertex   -6.860181e+001 1.069846e+002 3.000000e+000
      vertex   -6.860181e+001 1.069846e+002 0.000000e+000
      vertex   -6.841510e+001 1.069403e+002 3.000000e+000
    endloop
  endfacet
  facet normal -3.420201e-001 -9.396926e-001 -0.000000e+000
    outer loop
      vertex   -6.841510e+001 1.069403e+002 3.000000e+000
      vertex   -6.841510e+001 1.069403e+002 0.000000e+000
      vertex   -6.823480e+001 1.068747e+002 3.000000e+000
    endloop
  endfacet
  facet normal -4.487992e-001 -8.936326e-001 -0.000000e+000
    outer loop
      vertex   -6.823480e+001 1.068747e+002 3.000000e+000
      vertex   -6.823480e+001 1.068747e+002 0.000000e+000
      vertex   -6.806333e+001 1.067886e+002 3.000000e+000
    endloop
  endfacet
  facet normal -5.495090e-001 -8.354878e-001 -0.000000e+000
    outer loop
      vertex   -6.806333e+001 1.067886e+002 3.000000e+000
      vertex   -6.806333e+001 1.067886e+002 0.000000e+000
      vertex   -6.790302e+001 1.066832e+002 3.000000e+000
    endloop
  endfacet
  facet normal -6.427876e-001 -7.660444e-001 -0.000000e+000
    outer loop
      vertex   -6.790302e+001 1.066832e+002 3.000000e+000
      vertex   -6.790302e+001 1.066832e+002 0.000000e+000
      vertex   -6.775603e+001 1.065598e+002 3.000000e+000
    endloop
  endfacet
  facet normal -7.273736e-001 -6.862416e-001 -0.000000e+000
    outer loop
      vertex   -6.775603e+001 1.065598e+002 3.000000e+000
      vertex   -6.775603e+001 1.065598e+002 0.000000e+000
      vertex   -6.762436e+001 1.064203e+002 3.000000e+000
    endloop
  endfacet
  facet normal -8.021232e-001 -5.971586e-001 -0.000000e+000
    outer loop
      vertex   -6.762436e+001 1.064203e+002 3.000000e+000
      vertex   -6.762436e+001 1.064203e+002 0.000000e+000
      vertex   -6.750977e+001 1.062664e+002 3.000000e+000
    endloop
  endfacet
  facet normal -8.660254e-001 -5.000000e-001 -0.000000e+000
    outer loop
      vertex   -6.750977e+001 1.062664e+002 3.000000e+000
      vertex   -6.750977e+001 1.062664e+002 0.000000e+000
      vertex   -6.741383e+001 1.061002e+002 3.000000e+000
    endloop
  endfacet
  facet normal -9.182161e-001 -3.960798e-001 -0.000000e+000
    outer loop
      vertex   -6.741383e+001 1.061002e+002 3.000000e+000
      vertex   -6.741383e+001 1.061002e+002 0.000000e+000
      vertex   -6.733784e+001 1.059240e+002 3.000000e+000
    endloop
  endfacet
  facet normal -9.579895e-001 -2.868032e-001 -0.000000e+000
    outer loop
      vertex   -6.733784e+001 1.059240e+002 3.000000e+000
      vertex   -6.733784e+001 1.059240e+002 0.000000e+000
      vertex   -6.728280e+001 1.057402e+002 3.000000e+000
    endloop
  endfacet
  facet normal -9.848078e-001 -1.736482e-001 -0.000000e+000
    outer loop
      vertex   -6.728280e+001 1.057402e+002 3.000000e+000
      vertex   -6.728280e+001 1.057402e+002 0.000000e+000
      vertex   -6.724949e+001 1.055512e+002 3.000000e+000
    endloop
  endfacet
  facet normal -9.983082e-001 -5.814483e-002 -0.000000e+000
    outer loop
      vertex   -6.724949e+001 1.055512e+002 3.000000e+000
      vertex   -6.724949e+001 1.055512e+002 0.000000e+000
      vertex   -6.723833e+001 1.053597e+002 3.000000e+000
    endloop
  endfacet
  facet normal -9.983082e-001 5.814483e-002 0.000000e+000
    outer loop
      vertex   -6.723833e+001 1.053597e+002 3.000000e+000
      vertex   -6.723833e+001 1.053597e+002 0.000000e+000
      vertex   -6.724949e+001 1.051681e+002 3.000000e+000
    endloop
  endfacet
  facet normal -9.848078e-001 1.736482e-001 0.000000e+000
    outer loop
      vertex   -6.724949e+001 1.051681e+002 3.000000e+000
      vertex   -6.724949e+001 1.051681e+002 0.000000e+000
      vertex   -6.728280e+001 1.049791e+002 3.000000e+000
    endloop
  endfacet
  facet normal -9.579895e-001 2.868032e-001 0.000000e+000
    outer loop
      vertex   -6.728280e+001 1.049791e+002 3.000000e+000
      vertex   -6.728280e+001 1.049791e+002 0.000000e+000
      vertex   -6.733784e+001 1.047953e+002 3.000000e+000
    endloop
  endfacet
  facet normal -9.182161e-001 3.960798e-001 0.000000e+000
    outer loop
      vertex   -6.733784e+001 1.047953e+002 3.000000e+000
      vertex   -6.733784e+001 1.047953e+002 0.000000e+000
      vertex   -6.741383e+001 1.046191e+002 3.000000e+000
    endloop
  endfacet
  facet normal -8.660254e-001 5.000000e-001 0.000000e+000
    outer loop
      vertex   -6.741383e+001 1.046191e+002 3.000000e+000
      vertex   -6.741383e+001 1.046191e+002 0.000000e+000
      vertex   -6.750977e+001 1.044530e+002 3.000000e+000
    endloop
  endfacet
  facet normal -8.021232e-001 5.971586e-001 0.000000e+000
    outer loop
      vertex   -6.750977e+001 1.044530e+002 3.000000e+000
      vertex   -6.750977e+001 1.044530e+002 0.000000e+000
      vertex   -6.762436e+001 1.042991e+002 3.000000e+000
    endloop
  endfacet
  facet normal -7.273736e-001 6.862416e-001 0.000000e+000
    outer loop
      vertex   -6.762436e+001 1.042991e+002 3.000000e+000
      vertex   -6.762436e+001 1.042991e+002 0.000000e+000
      vertex   -6.775603e+001 1.041595e+002 3.000000e+000
    endloop
  endfacet
  facet normal -6.427876e-001 7.660444e-001 0.000000e+000
    outer loop
      vertex   -6.775603e+001 1.041595e+002 3.000000e+000
      vertex   -6.775603e+001 1.041595e+002 0.000000e+000
      vertex   -6.790302e+001 1.040362e+002 3.000000e+000
    endloop
  endfacet
  facet normal -5.495090e-001 8.354878e-001 0.000000e+000
    outer loop
      vertex   -6.790302e+001 1.040362e+002 3.000000e+000
      vertex   -6.790302e+001 1.040362e+002 0.000000e+000
      vertex   -6.806333e+001 1.039307e+002 3.000000e+000
    endloop
  endfacet
  facet normal -4.487992e-001 8.936326e-001 0.000000e+000
    outer loop
      vertex   -6.806333e+001 1.039307e+002 3.000000e+000
      vertex   -6.806333e+001 1.039307e+002 0.000000e+000
      vertex   -6.823480e+001 1.038446e+002 3.000000e+000
    endloop
  endfacet
  facet normal -3.420201e-001 9.396926e-001 0.000000e+000
    outer loop
      vertex   -6.823480e+001 1.038446e+002 3.000000e+000
      vertex   -6.823480e+001 1.038446e+002 0.000000e+000
      vertex   -6.841510e+001 1.037790e+002 3.000000e+000
    endloop
  endfacet
  facet normal -2.306159e-001 9.730449e-001 0.000000e+000
    outer loop
      vertex   -6.841510e+001 1.037790e+002 3.000000e+000
      vertex   -6.841510e+001 1.037790e+002 0.000000e+000
      vertex   -6.860181e+001 1.037347e+002 3.000000e+000
    endloop
  endfacet
  facet normal -1.160929e-001 9.932384e-001 0.000000e+000
    outer loop
      vertex   -6.860181e+001 1.037347e+002 3.000000e+000
      vertex   -6.860181e+001 1.037347e+002 0.000000e+000
      vertex   -6.879239e+001 1.037125e+002 3.000000e+000
    endloop
  endfacet
  facet normal 0.000000e+000 1.000000e+000 0.000000e+000
    outer loop
      vertex   -6.879239e+001 1.037125e+002 3.000000e+000
      vertex   -6.879239e+001 1.037125e+002 0.000000e+000
      vertex   -6.898427e+001 1.037125e+002 3.000000e+000
    endloop
  endfacet
  facet normal 1.160929e-001 9.932384e-001 0.000000e+000
    outer loop
      vertex   -6.898427e+001 1.037125e+002 3.000000e+000
      vertex   -6.898427e+001 1.037125e+002 0.000000e+000
      vertex   -6.917485e+001 1.037347e+002 3.000000e+000
    endloop
  endfacet
  facet normal 2.306159e-001 9.730449e-001 0.000000e+000
    outer loop
      vertex   -6.917485e+001 1.037347e+002 3.000000e+000
      vertex   -6.917485e+001 1.037347e+002 0.000000e+000
      vertex   -6.936155e+001 1.037790e+002 3.000000e+000
    endloop
  endfacet
  facet normal 3.420201e-001 9.396926e-001 0.000000e+000
    outer loop
      vertex   -6.936155e+001 1.037790e+002 3.000000e+000
      vertex   -6.936155e+001 1.037790e+002 0.000000e+000
      vertex   -6.954186e+001 1.038446e+002 3.000000e+000
    endloop
  endfacet
  facet normal 4.487992e-001 8.936326e-001 0.000000e+000
    outer loop
      vertex   -6.954186e+001 1.038446e+002 3.000000e+000
      vertex   -6.954186e+001 1.038446e+002 0.000000e+000
      vertex   -6.971333e+001 1.039307e+002 3.000000e+000
    endloop
  endfacet
  facet normal 5.495090e-001 8.354878e-001 0.000000e+000
    outer loop
      vertex   -6.971333e+001 1.039307e+002 3.000000e+000
      vertex   -6.971333e+001 1.039307e+002 0.000000e+000
      vertex   -6.987364e+001 1.040362e+002 3.000000e+000
    endloop
  endfacet
  facet normal 6.427876e-001 7.660444e-001 0.000000e+000
    outer loop
      vertex   -6.987364e+001 1.040362e+002 3.000000e+000
      vertex   -6.987364e+001 1.040362e+002 0.000000e+000
      vertex   -7.002063e+001 1.041595e+002 3.000000e+000
    endloop
  endfacet
  facet normal 7.273736e-001 6.862416e-001 0.000000e+000
    outer loop
      vertex   -7.002063e+001 1.041595e+002 3.000000e+000
      vertex   -7.002063e+001 1.041595e+002 0.000000e+000
      vertex   -7.015230e+001 1.042991e+002 3.000000e+000
    endloop
  endfacet
  facet normal 8.021232e-001 5.971586e-001 0.000000e+000
    outer loop
      vertex   -7.015230e+001 1.042991e+002 3.000000e+000
      vertex   -7.015230e+001 1.042991e+002 0.000000e+000
      vertex   -7.026688e+001 1.044530e+002 3.000000e+000
    endloop
  endfacet
  facet normal 8.660254e-001 5.000000e-001 0.000000e+000
    outer loop
      vertex   -7.026688e+001 1.044530e+002 3.000000e+000
      vertex   -7.026688e+001 1.044530e+002 0.000000e+000
      vertex   -7.036282e+001 1.046191e+002 3.000000e+000
    endloop
  endfacet
  facet normal 9.182161e-001 3.960798e-001 0.000000e+000
    outer loop
      vertex   -7.036282e+001 1.046191e+002 3.000000e+000
      vertex   -7.036282e+001 1.046191e+002 0.000000e+000
      vertex   -7.043882e+001 1.047953e+002 3.000000e+000
    endloop
  endfacet
  facet normal 9.579895e-001 2.868032e-001 0.000000e+000
    outer loop
      vertex   -7.043882e+001 1.047953e+002 3.000000e+000
      vertex   -7.043882e+001 1.047953e+002 0.000000e+000
      vertex   -7.049385e+001 1.049791e+002 3.000000e+000
    endloop
  endfacet
  facet normal 9.848078e-001 1.736482e-001 0.000000e+000
    outer loop
      vertex   -7.049385e+001 1.049791e+002 3.000000e+000
      vertex   -7.049385e+001 1.049791e+002 0.000000e+000
      vertex   -7.052717e+001 1.051681e+002 3.000000e+000
    endloop
  endfacet
  facet normal 9.983082e-001 5.814483e-002 0.000000e+000
    outer loop
      vertex   -7.052717e+001 1.051681e+002 3.000000e+000
      vertex   -7.052717e+001 1.051681e+002 0.000000e+000
      vertex   -7.053833e+001 1.053597e+002 3.000000e+000
    endloop
  endfacet
  facet normal 0.000000e+000 7.071068e-001 -7.071068e-001
    outer loop
      vertex   -5.922333e+001 1.114097e+002 0.000000e+000
      vertex   -7.392333e+001 1.114097e+002 0.000000e+000
      vertex   -5.922333e+001 1.124097e+002 1.000000e+000
    endloop
  endfacet
  facet normal 0.000000e+000 7.071068e-001 -7.071068e-001
    outer loop
      vertex   -5.922333e+001 1.124097e+002 1.000000e+000
      vertex   -7.392333e+001 1.114097e+002 0.000000e+000
      vertex   -7.392333e+001 1.124097e+002 1.000000e+000
    endloop
  endfacet
  facet normal -0.000000e+000 0.000000e+000 -1.000000e+000
    outer loop
      vertex   -7.052717e+001 1.051681e+002 0.000000e+000
      vertex   -7.392333e+001 9.930966e+001 0.000000e+000
      vertex   -7.053833e+001 1.053597e+002 0.000000e+000
    endloop
  endfacet
  facet normal 0.000000e+000 -0.000000e+000 -1.000000e+000
    outer loop
      vertex   -7.052717e+001 1.051681e+002 0.000000e+000
      vertex   -7.049385e+001 1.049791e+002 0.000000e+000
      vertex   -7.392333e+001 9.930966e+001 0.000000e+000
    endloop
  endfacet
  facet normal 0.000000e+000 0.000000e+000 -1.000000e+000
    outer loop
      vertex   -7.392333e+001 9.930966e+001 0.000000e+000
      vertex   -7.049385e+001 1.049791e+002 0.000000e+000
      vertex   -7.043882e+001 1.047953e+002 0.000000e+000
    endloop
  endfacet
  facet normal -0.000000e+000 0.000000e+000 -1.000000e+000
    outer loop
      vertex   -7.036282e+001 1.046191e+002 0.000000e+000
      vertex   -7.392333e+001 9.930966e+001 0.000000e+000
      vertex   -7.043882e+001 1.047953e+002 0.000000e+000
    endloop
  endfacet
  facet normal 0.000000e+000 -0.000000e+000 -1.000000e+000
    outer loop
      vertex   -7.036282e+001 1.046191e+002 0.000000e+000
      vertex   -7.026688e+001 1.044530e+002 0.000000e+000
      vertex   -7.392333e+001 9.930966e+001 0.000000e+000
    endloop
  endfacet
  facet normal 0.000000e+000 0.000000e+000 -1.000000e+000
    outer loop
      vertex   -7.392333e+001 9.930966e+001 0.000000e+000
      vertex   -7.026688e+001 1.044530e+002 0.000000e+000
      vertex   -7.015230e+001 1.042991e+002 0.000000e+000
    endloop
  endfacet
  facet normal -0.000000e+000 0.000000e+000 -1.000000e+000
    outer loop
      vertex   -7.002063e+001 1.041595e+002 0.000000e+000
      vertex   -7.392333e+001 9.930966e+001 0.000000e+000
      vertex   -7.015230e+001 1.042991e+002 0.000000e+000
    endloop
  endfacet
  facet normal 0.000000e+000 -0.000000e+000 -1.000000e+000
    outer loop
      vertex   -7.002063e+001 1.041595e+002 0.000000e+000
      vertex   -6.987364e+001 1.040362e+002 0.000000e+000
      vertex   -7.392333e+001 9.930966e+001 0.000000e+000
    endloop
  endfacet
  facet normal 0.000000e+000 0.000000e+000 -1.000000e+000
    outer loop
      vertex   -7.392333e+001 9.930966e+001 0.000000e+000
      vertex   -6.987364e+001 1.040362e+002 0.000000e+000
      vertex   -6.971333e+001 1.039307e+002 0.000000e+000
    endloop
  endfacet
  facet normal -0.000000e+000 0.000000e+000 -1.000000e+000
    outer loop
      vertex   -6.954186e+001 1.038446e+002 0.000000e+000
      vertex   -7.392333e+001 9.930966e+001 0.000000e+000
      vertex   -6.971333e+001 1.039307e+002 0.000000e+000
    endloop
  endfacet
  facet normal 0.000000e+000 -0.000000e+000 -1.000000e+000
    outer loop
      vertex   -6.954186e+001 1.038446e+002 0.000000e+000
      vertex   -6.936155e+001 1.037790e+002 0.000000e+000
      vertex   -7.392333e+001 9.930966e+001 0.000000e+000
    endloop
  endfacet
  facet normal 0.000000e+000 0.000000e+000 -1.000000e+000
    outer loop
      vertex   -7.392333e+001 9.930966e+001 0.000000e+000
      vertex   -6.936155e+001 1.037790e+002 0.000000e+000
      vertex   -6.917485e+001 1.037347e+002 0.000000e+000
    endloop
  endfacet
  facet normal -0.000000e+000 0.000000e+000 -1.000000e+000
    outer loop
      vertex   -6.898427e+001 1.037125e+002 0.000000e+000
      vertex   -7.392333e+001 9.930966e+001 0.000000e+000
      vertex   -6.917485e+001 1.037347e+002 0.000000e+000
    endloop
  endfacet
  facet normal 0.000000e+000 -0.000000e+000 -1.000000e+000
    outer loop
      vertex   -6.898427e+001 1.037125e+002 0.000000e+000
      vertex   -6.879239e+001 1.037125e+002 0.000000e+000
      vertex   -7.392333e+001 9.930966e+001 0.000000e+000
    endloop
  endfacet
  facet normal 0.000000e+000 0.000000e+000 -1.000000e+000
    outer loop
      vertex   -7.392333e+001 9.930966e+001 0.000000e+000
      vertex   -6.879239e+001 1.037125e+002 0.000000e+000
      vertex   -6.860181e+001 1.037347e+002 0.000000e+000
    endloop
  endfacet
  facet normal 0.000000e+000 0.000000e+000 -1.000000e+000
    outer loop
      vertex   -5.922333e+001 9.930966e+001 0.000000e+000
      vertex   -6.860181e+001 1.037347e+002 0.000000e+000
      vertex   -6.841510e+001 1.037790e+002 0.000000e+000
    endloop
  endfacet
  facet normal -0.000000e+000 -0.000000e+000 -1.000000e+000
    outer loop
      vertex   -6.823480e+001 1.038446e+002 0.000000e+000
      vertex   -5.922333e+001 9.930966e+001 0.000000e+000
      vertex   -6.841510e+001 1.037790e+002 0.000000e+000
    endloop
  endfacet
  facet normal 0.000000e+000 0.000000e+000 -1.000000e+000
    outer loop
      vertex   -6.823480e+001 1.038446e+002 0.000000e+000
      vertex   -6.806333e+001 1.039307e+002 0.000000e+000
      vertex   -5.922333e+001 9.930966e+001 0.000000e+000
    endloop
  endfacet
  facet normal 0.000000e+000 0.000000e+000 -1.000000e+000
    outer loop
      vertex   -5.922333e+001 9.930966e+001 0.000000e+000
      vertex   -6.806333e+001 1.039307e+002 0.000000e+000
      vertex   -6.790302e+001 1.040362e+002 0.000000e+000
    endloop
  endfacet
  facet normal -0.000000e+000 -0.000000e+000 -1.000000e+000
    outer loop
      vertex   -6.775603e+001 1.041595e+002 0.000000e+000
      vertex   -5.922333e+001 9.930966e+001 0.000000e+000
      vertex   -6.790302e+001 1.040362e+002 0.000000e+000
    endloop
  endfacet
  facet normal 0.000000e+000 0.000000e+000 -1.000000e+000
    outer loop
      vertex   -6.775603e+001 1.041595e+002 0.000000e+000
      vertex   -6.762436e+001 1.042991e+002 0.000000e+000
      vertex   -5.922333e+001 9.930966e+001 0.000000e+000
    endloop
  endfacet
  facet normal 0.000000e+000 0.000000e+000 -1.000000e+000
    outer loop
      vertex   -5.922333e+001 9.930966e+001 0.000000e+000
      vertex   -6.762436e+001 1.042991e+002 0.000000e+000
      vertex   -6.750977e+001 1.044530e+002 0.000000e+000
    endloop
  endfacet
  facet normal -0.000000e+000 -0.000000e+000 -1.000000e+000
    outer loop
      vertex   -6.741383e+001 1.046191e+002 0.000000e+000
      vertex   -5.922333e+001 9.930966e+001 0.000000e+000
      vertex   -6.750977e+001 1.044530e+002 0.000000e+000
    endloop
  endfacet
  facet normal 0.000000e+000 0.000000e+000 -1.000000e+000
    outer loop
      vertex   -6.741383e+001 1.046191e+002 0.000000e+000
      vertex   -6.733784e+001 1.047953e+002 0.000000e+000
      vertex   -5.922333e+001 9.930966e+001 0.000000e+000
    endloop
  endfacet
  facet normal 0.000000e+000 0.000000e+000 -1.000000e+000
    outer loop
      vertex   -5.922333e+001 9.930966e+001 0.000000e+000
      vertex   -6.733784e+001 1.047953e+002 0.000000e+000
      vertex   -6.728280e+001 1.049791e+002 0.000000e+000
    endloop
  endfacet
  facet normal -0.000000e+000 -0.000000e+000 -1.000000e+000
    outer loop
      vertex   -6.724949e+001 1.051681e+002 0.000000e+000
      vertex   -5.922333e+001 9.930966e+001 0.000000e+000
      vertex   -6.728280e+001 1.049791e+002 0.000000e+000
    endloop
  endfacet
  facet normal 0.000000e+000 0.000000e+000 -1.000000e+000
    outer loop
      vertex   -6.724949e+001 1.051681e+002 0.000000e+000
      vertex   -6.723833e+001 1.053597e+002 0.000000e+000
      vertex   -5.922333e+001 9.930966e+001 0.000000e+000
    endloop
  endfacet
  facet normal 0.000000e+000 0.000000e+000 -1.000000e+000
    outer loop
      vertex   -5.922333e+001 9.930966e+001 0.000000e+000
      vertex   -6.723833e+001 1.053597e+002 0.000000e+000
      vertex   -5.922333e+001 1.114097e+002 0.000000e+000
    endloop
  endfacet
  facet normal -0.000000e+000 0.000000e+000 -1.000000e+000
    outer loop
      vertex   -5.922333e+001 1.114097e+002 0.000000e+000
      vertex   -6.723833e+001 1.053597e+002 0.000000e+000
      vertex   -6.724949e+001 1.055512e+002 0.000000e+000
    endloop
  endfacet
  facet normal 0.000000e+000 -0.000000e+000 -1.000000e+000
    outer loop
      vertex   -6.728280e+001 1.057402e+002 0.000000e+000
      vertex   -5.922333e+001 1.114097e+002 0.000000e+000
      vertex   -6.724949e+001 1.055512e+002 0.000000e+000
    endloop
  endfacet
  facet normal 0.000000e+000 0.000000e+000 -1.000000e+000
    outer loop
      vertex   -6.728280e+001 1.057402e+002 0.000000e+000
      vertex   -6.733784e+001 1.059240e+002 0.000000e+000
      vertex   -5.922333e+001 1.114097e+002 0.000000e+000
    endloop
  endfacet
  facet normal -0.000000e+000 0.000000e+000 -1.000000e+000
    outer loop
      vertex   -5.922333e+001 1.114097e+002 0.000000e+000
      vertex   -6.733784e+001 1.059240e+002 0.000000e+000
      vertex   -6.741383e+001 1.061002e+002 0.000000e+000
    endloop
  endfacet
  facet normal 0.000000e+000 -0.000000e+000 -1.000000e+000
    outer loop
      vertex   -6.750977e+001 1.062664e+002 0.000000e+000
      vertex   -5.922333e+001 1.114097e+002 0.000000e+000
      vertex   -6.741383e+001 1.061002e+002 0.000000e+000
    endloop
  endfacet
  facet normal 0.000000e+000 0.000000e+000 -1.000000e+000
    outer loop
      vertex   -6.750977e+001 1.062664e+002 0.000000e+000
      vertex   -6.762436e+001 1.064203e+002 0.000000e+000
      vertex   -5.922333e+001 1.114097e+002 0.000000e+000
    endloop
  endfacet
  facet normal -0.000000e+000 0.000000e+000 -1.000000e+000
    outer loop
      vertex   -5.922333e+001 1.114097e+002 0.000000e+000
      vertex   -6.762436e+001 1.064203e+002 0.000000e+000
      vertex   -6.775603e+001 1.065598e+002 0.000000e+000
    endloop
  endfacet
  facet normal 0.000000e+000 -0.000000e+000 -1.000000e+000
    outer loop
      vertex   -6.790302e+001 1.066832e+002 0.000000e+000
      vertex   -5.922333e+001 1.114097e+002 0.000000e+000
      vertex   -6.775603e+001 1.065598e+002 0.000000e+000
    endloop
  endfacet
  facet normal 0.000000e+000 0.000000e+000 -1.000000e+000
    outer loop
      vertex   -6.790302e+001 1.066832e+002 0.000000e+000
      vertex   -6.806333e+001 1.067886e+002 0.000000e+000
      vertex   -5.922333e+001 1.114097e+002 0.000000e+000
    endloop
  endfacet
  facet normal -0.000000e+000 0.000000e+000 -1.000000e+000
    outer loop
      vertex   -5.922333e+001 1.114097e+002 0.000000e+000
      vertex   -6.806333e+001 1.067886e+002 0.000000e+000
      vertex   -6.823480e+001 1.068747e+002 0.000000e+000
    endloop
  endfacet
  facet normal 0.000000e+000 -0.000000e+000 -1.000000e+000
    outer loop
      vertex   -6.841510e+001 1.069403e+002 0.000000e+000
      vertex   -5.922333e+001 1.114097e+002 0.000000e+000
      vertex   -6.823480e+001 1.068747e+002 0.000000e+000
    endloop
  endfacet
  facet normal 0.000000e+000 0.000000e+000 -1.000000e+000
    outer loop
      vertex   -6.841510e+001 1.069403e+002 0.000000e+000
      vertex   -6.860181e+001 1.069846e+002 0.000000e+000
      vertex   -5.922333e+001 1.114097e+002 0.000000e+000
    endloop
  endfacet
  facet normal -0.000000e+000 0.000000e+000 -1.000000e+000
    outer loop
      vertex   -5.922333e+001 1.114097e+002 0.000000e+000
      vertex   -6.860181e+001 1.069846e+002 0.000000e+000
      vertex   -7.392333e+001 1.114097e+002 0.000000e+000
    endloop
  endfacet
  facet normal -0.000000e+000 -0.000000e+000 -1.000000e+000
    outer loop
      vertex   -7.392333e+001 1.114097e+002 0.000000e+000
      vertex   -6.860181e+001 1.069846e+002 0.000000e+000
      vertex   -6.879239e+001 1.070069e+002 0.000000e+000
    endloop
  endfacet
  facet normal 0.000000e+000 0.000000e+000 -1.000000e+000
    outer loop
      vertex   -6.898427e+001 1.070069e+002 0.000000e+000
      vertex   -7.392333e+001 1.114097e+002 0.000000e+000
      vertex   -6.879239e+001 1.070069e+002 0.000000e+000
    endloop
  endfacet
  facet normal -0.000000e+000 0.000000e+000 -1.000000e+000
    outer loop
      vertex   -6.898427e+001 1.070069e+002 0.000000e+000
      vertex   -6.917485e+001 1.069846e+002 0.000000e+000
      vertex   -7.392333e+001 1.114097e+002 0.000000e+000
    endloop
  endfacet
  facet normal 0.000000e+000 -0.000000e+000 -1.000000e+000
    outer loop
      vertex   -7.392333e+001 1.114097e+002 0.000000e+000
      vertex   -6.917485e+001 1.069846e+002 0.000000e+000
      vertex   -6.936155e+001 1.069403e+002 0.000000e+000
    endloop
  endfacet
  facet normal 0.000000e+000 0.000000e+000 -1.000000e+000
    outer loop
      vertex   -6.954186e+001 1.068747e+002 0.000000e+000
      vertex   -7.392333e+001 1.114097e+002 0.000000e+000
      vertex   -6.936155e+001 1.069403e+002 0.000000e+000
    endloop
  endfacet
  facet normal -0.000000e+000 0.000000e+000 -1.000000e+000
    outer loop
      vertex   -6.954186e+001 1.068747e+002 0.000000e+000
      vertex   -6.971333e+001 1.067886e+002 0.000000e+000
      vertex   -7.392333e+001 1.114097e+002 0.000000e+000
    endloop
  endfacet
  facet normal 0.000000e+000 -0.000000e+000 -1.000000e+000
    outer loop
      vertex   -7.392333e+001 1.114097e+002 0.000000e+000
      vertex   -6.971333e+001 1.067886e+002 0.000000e+000
      vertex   -6.987364e+001 1.066832e+002 0.000000e+000
    endloop
  endfacet
  facet normal 0.000000e+000 0.000000e+000 -1.000000e+000
    outer loop
      vertex   -7.002063e+001 1.065598e+002 0.000000e+000
      vertex   -7.392333e+001 1.114097e+002 0.000000e+000
      vertex   -6.987364e+001 1.066832e+002 0.000000e+000
    endloop
  endfacet
  facet normal -0.000000e+000 0.000000e+000 -1.000000e+000
    outer loop
      vertex   -7.002063e+001 1.065598e+002 0.000000e+000
      vertex   -7.015230e+001 1.064203e+002 0.000000e+000
      vertex   -7.392333e+001 1.114097e+002 0.000000e+000
    endloop
  endfacet
  facet normal 0.000000e+000 -0.000000e+000 -1.000000e+000
    outer loop
      vertex   -7.392333e+001 1.114097e+002 0.000000e+000
      vertex   -7.015230e+001 1.064203e+002 0.000000e+000
      vertex   -7.026688e+001 1.062664e+002 0.000000e+000
    endloop
  endfacet
  facet normal 0.000000e+000 0.000000e+000 -1.000000e+000
    outer loop
      vertex   -7.036282e+001 1.061002e+002 0.000000e+000
      vertex   -7.392333e+001 1.114097e+002 0.000000e+000
      vertex   -7.026688e+001 1.062664e+002 0.000000e+000
    endloop
  endfacet
  facet normal -0.000000e+000 0.000000e+000 -1.000000e+000
    outer loop
      vertex   -7.036282e+001 1.061002e+002 0.000000e+000
      vertex   -7.043882e+001 1.059240e+002 0.000000e+000
      vertex   -7.392333e+001 1.114097e+002 0.000000e+000
    endloop
  endfacet
  facet normal 0.000000e+000 -0.000000e+000 -1.000000e+000
    outer loop
      vertex   -7.392333e+001 1.114097e+002 0.000000e+000
      vertex   -7.043882e+001 1.059240e+002 0.000000e+000
      vertex   -7.049385e+001 1.057402e+002 0.000000e+000
    endloop
  endfacet
  facet normal 0.000000e+000 0.000000e+000 -1.000000e+000
    outer loop
      vertex   -7.052717e+001 1.055512e+002 0.000000e+000
      vertex   -7.392333e+001 1.114097e+002 0.000000e+000
      vertex   -7.049385e+001 1.057402e+002 0.000000e+000
    endloop
  endfacet
  facet normal -0.000000e+000 0.000000e+000 -1.000000e+000
    outer loop
      vertex   -7.052717e+001 1.055512e+002 0.000000e+000
      vertex   -7.053833e+001 1.053597e+002 0.000000e+000
      vertex   -7.392333e+001 1.114097e+002 0.000000e+000
    endloop
  endfacet
  facet normal 0.000000e+000 -0.000000e+000 -1.000000e+000
    outer loop
      vertex   -7.392333e+001 1.114097e+002 0.000000e+000
      vertex   -7.053833e+001 1.053597e+002 0.000000e+000
      vertex   -7.392333e+001 9.930966e+001 0.000000e+000
    endloop
  endfacet
  facet normal 0.000000e+000 0.000000e+000 -1.000000e+000
    outer loop
      vertex   -7.392333e+001 9.930966e+001 0.000000e+000
      vertex   -6.860181e+001 1.037347e+002 0.000000e+000
      vertex   -5.922333e+001 9.930966e+001 0.000000e+000
    endloop
  endfacet
  facet normal 1.000000e+000 0.000000e+000 -0.000000e+000
    outer loop
      vertex   -5.922333e+001 1.114097e+002 0.000000e+000
      vertex   -5.922333e+001 1.124097e+002 1.000000e+000
      vertex   -5.922333e+001 9.930966e+001 0.000000e+000
    endloop
  endfacet
  facet normal 1.000000e+000 0.000000e+000 -0.000000e+000
    outer loop
      vertex   -5.922333e+001 9.930966e+001 0.000000e+000
      vertex   -5.922333e+001 1.124097e+002 1.000000e+000
      vertex   -5.922333e+001 9.830966e+001 1.000000e+000
    endloop
  endfacet
  facet normal 1.000000e+000 0.000000e+000 -0.000000e+000
    outer loop
      vertex   -5.922333e+001 9.830966e+001 1.000000e+000
      vertex   -5.922333e+001 1.124097e+002 1.000000e+000
      vertex   -5.922333e+001 9.830966e+001 1.942833e+000
    endloop
  endfacet
  facet normal 1.000000e+000 -0.000000e+000 -0.000000e+000
    outer loop
      vertex   -5.922333e+001 9.830966e+001 1.942833e+000
      vertex   -5.922333e+001 1.124097e+002 1.000000e+000
      vertex   -5.922333e+001 1.124097e+002 1.942833e+000
    endloop
  endfacet
  facet normal 0.000000e+000 -7.071068e-001 -7.071068e-001
    outer loop
      vertex   -7.392333e+001 9.930966e+001 0.000000e+000
      vertex   -5.922333e+001 9.930966e+001 0.000000e+000
      vertex   -7.392333e+001 9.830966e+001 1.000000e+000
    endloop
  endfacet
  facet normal 0.000000e+000 -7.071068e-001 -7.071068e-001
    outer loop
      vertex   -7.392333e+001 9.830966e+001 1.000000e+000
      vertex   -5.922333e+001 9.930966e+001 0.000000e+000
      vertex   -5.922333e+001 9.830966e+001 1.000000e+000
    endloop
  endfacet
  facet normal 0.000000e+000 -1.000000e+000 0.000000e+000
    outer loop
      vertex   -7.392333e+001 9.830966e+001 3.000000e+000
      vertex   -7.392333e+001 9.830966e+001 1.000000e+000
      vertex   -6.385333e+001 9.830966e+001 1.942833e+000
    endloop
  endfacet
  facet normal -0.000000e+000 -1.000000e+000 -0.000000e+000
    outer loop
      vertex   -6.385333e+001 9.830966e+001 3.000000e+000
      vertex   -7.392333e+001 9.830966e+001 3.000000e+000
      vertex   -6.385333e+001 9.830966e+001 1.942833e+000
    endloop
  endfacet
  facet normal 0.000000e+000 -1.000000e+000 -0.000000e+000
    outer loop
      vertex   -5.922333e+001 9.830966e+001 1.942833e+000
      vertex   -6.385333e+001 9.830966e+001 1.942833e+000
      vertex   -5.922333e+001 9.830966e+001 1.000000e+000
    endloop
  endfacet
  facet normal -0.000000e+000 -1.000000e+000 0.000000e+000
    outer loop
      vertex   -5.922333e+001 9.830966e+001 1.000000e+000
      vertex   -6.385333e+001 9.830966e+001 1.942833e+000
      vertex   -7.392333e+001 9.830966e+001 1.000000e+000
    endloop
  endfacet
  facet normal -7.673248e-015 0.000000e+000 1.000000e+000
    outer loop
      vertex   -6.385333e+001 1.124097e+002 1.942833e+000
      vertex   -6.385333e+001 9.830966e+001 1.942833e+000
      vertex   -5.922333e+001 1.124097e+002 1.942833e+000
    endloop
  endfacet
  facet normal -7.673248e-015 0.000000e+000 1.000000e+000
    outer loop
      vertex   -5.922333e+001 1.124097e+002 1.942833e+000
      vertex   -6.385333e+001 9.830966e+001 1.942833e+000
      vertex   -5.922333e+001 9.830966e+001 1.942833e+000
    endloop
  endfacet
  facet normal 1.000000e+000 0.000000e+000 -0.000000e+000
    outer loop
      vertex   -6.385333e+001 1.124097e+002 1.942833e+000
      vertex   -6.385333e+001 1.124097e+002 3.000000e+000
      vertex   -6.385333e+001 9.830966e+001 1.942833e+000
    endloop
  endfacet
  facet normal 1.000000e+000 0.000000e+000 -0.000000e+000
    outer loop
      vertex   -6.385333e+001 9.830966e+001 1.942833e+000
      vertex   -6.385333e+001 1.124097e+002 3.000000e+000
      vertex   -6.385333e+001 9.830966e+001 3.000000e+000
    endloop
  endfacet
  facet normal 0.000000e+000 0.000000e+000 1.000000e+000
    outer loop
      vertex   -7.052717e+001 1.055512e+002 3.000000e+000
      vertex   -7.392333e+001 1.124097e+002 3.000000e+000
      vertex   -7.053833e+001 1.053597e+002 3.000000e+000
    endloop
  endfacet
  facet normal 0.000000e+000 -0.000000e+000 1.000000e+000
    outer loop
      vertex   -7.052717e+001 1.055512e+002 3.000000e+000
      vertex   -7.049385e+001 1.057402e+002 3.000000e+000
      vertex   -7.392333e+001 1.124097e+002 3.000000e+000
    endloop
  endfacet
  facet normal -0.000000e+000 0.000000e+000 1.000000e+000
    outer loop
      vertex   -7.392333e+001 1.124097e+002 3.000000e+000
      vertex   -7.049385e+001 1.057402e+002 3.000000e+000
      vertex   -7.043882e+001 1.059240e+002 3.000000e+000
    endloop
  endfacet
  facet normal 0.000000e+000 0.000000e+000 1.000000e+000
    outer loop
      vertex   -7.036282e+001 1.061002e+002 3.000000e+000
      vertex   -7.392333e+001 1.124097e+002 3.000000e+000
      vertex   -7.043882e+001 1.059240e+002 3.000000e+000
    endloop
  endfacet
  facet normal 0.000000e+000 -0.000000e+000 1.000000e+000
    outer loop
      vertex   -7.036282e+001 1.061002e+002 3.000000e+000
      vertex   -7.026688e+001 1.062664e+002 3.000000e+000
      vertex   -7.392333e+001 1.124097e+002 3.000000e+000
    endloop
  endfacet
  facet normal -0.000000e+000 0.000000e+000 1.000000e+000
    outer loop
      vertex   -7.392333e+001 1.124097e+002 3.000000e+000
      vertex   -7.026688e+001 1.062664e+002 3.000000e+000
      vertex   -7.015230e+001 1.064203e+002 3.000000e+000
    endloop
  endfacet
  facet normal 0.000000e+000 0.000000e+000 1.000000e+000
    outer loop
      vertex   -7.002063e+001 1.065598e+002 3.000000e+000
      vertex   -7.392333e+001 1.124097e+002 3.000000e+000
      vertex   -7.015230e+001 1.064203e+002 3.000000e+000
    endloop
  endfacet
  facet normal 0.000000e+000 -0.000000e+000 1.000000e+000
    outer loop
      vertex   -7.002063e+001 1.065598e+002 3.000000e+000
      vertex   -6.987364e+001 1.066832e+002 3.000000e+000
      vertex   -7.392333e+001 1.124097e+002 3.000000e+000
    endloop
  endfacet
  facet normal -0.000000e+000 0.000000e+000 1.000000e+000
    outer loop
      vertex   -7.392333e+001 1.124097e+002 3.000000e+000
      vertex   -6.987364e+001 1.066832e+002 3.000000e+000
      vertex   -6.971333e+001 1.067886e+002 3.000000e+000
    endloop
  endfacet
  facet normal 0.000000e+000 0.000000e+000 1.000000e+000
    outer loop
      vertex   -6.954186e+001 1.068747e+002 3.000000e+000
      vertex   -7.392333e+001 1.124097e+002 3.000000e+000
      vertex   -6.971333e+001 1.067886e+002 3.000000e+000
    endloop
  endfacet
  facet normal 0.000000e+000 -0.000000e+000 1.000000e+000
    outer loop
      vertex   -6.954186e+001 1.068747e+002 3.000000e+000
      vertex   -6.936155e+001 1.069403e+002 3.000000e+000
      vertex   -7.392333e+001 1.124097e+002 3.000000e+000
    endloop
  endfacet
  facet normal -0.000000e+000 0.000000e+000 1.000000e+000
    outer loop
      vertex   -7.392333e+001 1.124097e+002 3.000000e+000
      vertex   -6.936155e+001 1.069403e+002 3.000000e+000
      vertex   -6.917485e+001 1.069846e+002 3.000000e+000
    endloop
  endfacet
  facet normal 0.000000e+000 0.000000e+000 1.000000e+000
    outer loop
      vertex   -6.898427e+001 1.070069e+002 3.000000e+000
      vertex   -7.392333e+001 1.124097e+002 3.000000e+000
      vertex   -6.917485e+001 1.069846e+002 3.000000e+000
    endloop
  endfacet
  facet normal 0.000000e+000 -0.000000e+000 1.000000e+000
    outer loop
      vertex   -6.898427e+001 1.070069e+002 3.000000e+000
      vertex   -6.879239e+001 1.070069e+002 3.000000e+000
      vertex   -7.392333e+001 1.124097e+002 3.000000e+000
    endloop
  endfacet
  facet normal -0.000000e+000 0.000000e+000 1.000000e+000
    outer loop
      vertex   -7.392333e+001 1.124097e+002 3.000000e+000
      vertex   -6.879239e+001 1.070069e+002 3.000000e+000
      vertex   -6.385333e+001 1.124097e+002 3.000000e+000
    endloop
  endfacet
  facet normal 0.000000e+000 0.000000e+000 1.000000e+000
    outer loop
      vertex   -6.385333e+001 1.124097e+002 3.000000e+000
      vertex   -6.879239e+001 1.070069e+002 3.000000e+000
      vertex   -6.860181e+001 1.069846e+002 3.000000e+000
    endloop
  endfacet
  facet normal 0.000000e+000 -0.000000e+000 1.000000e+000
    outer loop
      vertex   -6.841510e+001 1.069403e+002 3.000000e+000
      vertex   -6.385333e+001 1.124097e+002 3.000000e+000
      vertex   -6.860181e+001 1.069846e+002 3.000000e+000
    endloop
  endfacet
  facet normal -0.000000e+000 0.000000e+000 1.000000e+000
    outer loop
      vertex   -6.841510e+001 1.069403e+002 3.000000e+000
      vertex   -6.823480e+001 1.068747e+002 3.000000e+000
      vertex   -6.385333e+001 1.124097e+002 3.000000e+000
    endloop
  endfacet
  facet normal 0.000000e+000 0.000000e+000 1.000000e+000
    outer loop
      vertex   -6.385333e+001 1.124097e+002 3.000000e+000
      vertex   -6.823480e+001 1.068747e+002 3.000000e+000
      vertex   -6.806333e+001 1.067886e+002 3.000000e+000
    endloop
  endfacet
  facet normal 0.000000e+000 -0.000000e+000 1.000000e+000
    outer loop
      vertex   -6.790302e+001 1.066832e+002 3.000000e+000
      vertex   -6.385333e+001 1.124097e+002 3.000000e+000
      vertex   -6.806333e+001 1.067886e+002 3.000000e+000
    endloop
  endfacet
  facet normal -0.000000e+000 0.000000e+000 1.000000e+000
    outer loop
      vertex   -6.790302e+001 1.066832e+002 3.000000e+000
      vertex   -6.775603e+001 1.065598e+002 3.000000e+000
      vertex   -6.385333e+001 1.124097e+002 3.000000e+000
    endloop
  endfacet
  facet normal 0.000000e+000 0.000000e+000 1.000000e+000
    outer loop
      vertex   -6.385333e+001 1.124097e+002 3.000000e+000
      vertex   -6.775603e+001 1.065598e+002 3.000000e+000
      vertex   -6.762436e+001 1.064203e+002 3.000000e+000
    endloop
  endfacet
  facet normal 0.000000e+000 -0.000000e+000 1.000000e+000
    outer loop
      vertex   -6.750977e+001 1.062664e+002 3.000000e+000
      vertex   -6.385333e+001 1.124097e+002 3.000000e+000
      vertex   -6.762436e+001 1.064203e+002 3.000000e+000
    endloop
  endfacet
  facet normal -0.000000e+000 0.000000e+000 1.000000e+000
    outer loop
      vertex   -6.750977e+001 1.062664e+002 3.000000e+000
      vertex   -6.741383e+001 1.061002e+002 3.000000e+000
      vertex   -6.385333e+001 1.124097e+002 3.000000e+000
    endloop
  endfacet
  facet normal 0.000000e+000 0.000000e+000 1.000000e+000
    outer loop
      vertex   -6.385333e+001 1.124097e+002 3.000000e+000
      vertex   -6.741383e+001 1.061002e+002 3.000000e+000
      vertex   -6.733784e+001 1.059240e+002 3.000000e+000
    endloop
  endfacet
  facet normal 0.000000e+000 -0.000000e+000 1.000000e+000
    outer loop
      vertex   -6.728280e+001 1.057402e+002 3.000000e+000
      vertex   -6.385333e+001 1.124097e+002 3.000000e+000
      vertex   -6.733784e+001 1.059240e+002 3.000000e+000
    endloop
  endfacet
  facet normal -0.000000e+000 0.000000e+000 1.000000e+000
    outer loop
      vertex   -6.728280e+001 1.057402e+002 3.000000e+000
      vertex   -6.724949e+001 1.055512e+002 3.000000e+000
      vertex   -6.385333e+001 1.124097e+002 3.000000e+000
    endloop
  endfacet
  facet normal 0.000000e+000 0.000000e+000 1.000000e+000
    outer loop
      vertex   -6.385333e+001 1.124097e+002 3.000000e+000
      vertex   -6.724949e+001 1.055512e+002 3.000000e+000
      vertex   -6.723833e+001 1.053597e+002 3.000000e+000
    endloop
  endfacet
  facet normal 0.000000e+000 0.000000e+000 1.000000e+000
    outer loop
      vertex   -6.385333e+001 9.830966e+001 3.000000e+000
      vertex   -6.723833e+001 1.053597e+002 3.000000e+000
      vertex   -6.724949e+001 1.051681e+002 3.000000e+000
    endloop
  endfacet
  facet normal -0.000000e+000 -0.000000e+000 1.000000e+000
    outer loop
      vertex   -6.728280e+001 1.049791e+002 3.000000e+000
      vertex   -6.385333e+001 9.830966e+001 3.000000e+000
      vertex   -6.724949e+001 1.051681e+002 3.000000e+000
    endloop
  endfacet
  facet normal 0.000000e+000 0.000000e+000 1.000000e+000
    outer loop
      vertex   -6.728280e+001 1.049791e+002 3.000000e+000
      vertex   -6.733784e+001 1.047953e+002 3.000000e+000
      vertex   -6.385333e+001 9.830966e+001 3.000000e+000
    endloop
  endfacet
  facet normal 0.000000e+000 0.000000e+000 1.000000e+000
    outer loop
      vertex   -6.385333e+001 9.830966e+001 3.000000e+000
      vertex   -6.733784e+001 1.047953e+002 3.000000e+000
      vertex   -6.741383e+001 1.046191e+002 3.000000e+000
    endloop
  endfacet
  facet normal -0.000000e+000 -0.000000e+000 1.000000e+000
    outer loop
      vertex   -6.750977e+001 1.044530e+002 3.000000e+000
      vertex   -6.385333e+001 9.830966e+001 3.000000e+000
      vertex   -6.741383e+001 1.046191e+002 3.000000e+000
    endloop
  endfacet
  facet normal 0.000000e+000 0.000000e+000 1.000000e+000
    outer loop
      vertex   -6.750977e+001 1.044530e+002 3.000000e+000
      vertex   -6.762436e+001 1.042991e+002 3.000000e+000
      vertex   -6.385333e+001 9.830966e+001 3.000000e+000
    endloop
  endfacet
  facet normal 0.000000e+000 0.000000e+000 1.000000e+000
    outer loop
      vertex   -6.385333e+001 9.830966e+001 3.000000e+000
      vertex   -6.762436e+001 1.042991e+002 3.000000e+000
      vertex   -6.775603e+001 1.041595e+002 3.000000e+000
    endloop
  endfacet
  facet normal -0.000000e+000 -0.000000e+000 1.000000e+000
    outer loop
      vertex   -6.790302e+001 1.040362e+002 3.000000e+000
      vertex   -6.385333e+001 9.830966e+001 3.000000e+000
      vertex   -6.775603e+001 1.041595e+002 3.000000e+000
    endloop
  endfacet
  facet normal 0.000000e+000 0.000000e+000 1.000000e+000
    outer loop
      vertex   -6.790302e+001 1.040362e+002 3.000000e+000
      vertex   -6.806333e+001 1.039307e+002 3.000000e+000
      vertex   -6.385333e+001 9.830966e+001 3.000000e+000
    endloop
  endfacet
  facet normal 0.000000e+000 0.000000e+000 1.000000e+000
    outer loop
      vertex   -6.385333e+001 9.830966e+001 3.000000e+000
      vertex   -6.806333e+001 1.039307e+002 3.000000e+000
      vertex   -6.823480e+001 1.038446e+002 3.000000e+000
    endloop
  endfacet
  facet normal -0.000000e+000 -0.000000e+000 1.000000e+000
    outer loop
      vertex   -6.841510e+001 1.037790e+002 3.000000e+000
      vertex   -6.385333e+001 9.830966e+001 3.000000e+000
      vertex   -6.823480e+001 1.038446e+002 3.000000e+000
    endloop
  endfacet
  facet normal 0.000000e+000 0.000000e+000 1.000000e+000
    outer loop
      vertex   -6.841510e+001 1.037790e+002 3.000000e+000
      vertex   -6.860181e+001 1.037347e+002 3.000000e+000
      vertex   -6.385333e+001 9.830966e+001 3.000000e+000
    endloop
  endfacet
  facet normal 0.000000e+000 0.000000e+000 1.000000e+000
    outer loop
      vertex   -6.385333e+001 9.830966e+001 3.000000e+000
      vertex   -6.860181e+001 1.037347e+002 3.000000e+000
      vertex   -6.879239e+001 1.037125e+002 3.000000e+000
    endloop
  endfacet
  facet normal -0.000000e+000 -0.000000e+000 1.000000e+000
    outer loop
      vertex   -6.898427e+001 1.037125e+002 3.000000e+000
      vertex   -6.385333e+001 9.830966e+001 3.000000e+000
      vertex   -6.879239e+001 1.037125e+002 3.000000e+000
    endloop
  endfacet
  facet normal -0.000000e+000 0.000000e+000 1.000000e+000
    outer loop
      vertex   -6.898427e+001 1.037125e+002 3.000000e+000
      vertex   -7.392333e+001 9.830966e+001 3.000000e+000
      vertex   -6.385333e+001 9.830966e+001 3.000000e+000
    endloop
  endfacet
  facet normal 0.000000e+000 0.000000e+000 1.000000e+000
    outer loop
      vertex   -6.898427e+001 1.037125e+002 3.000000e+000
      vertex   -6.917485e+001 1.037347e+002 3.000000e+000
      vertex   -7.392333e+001 9.830966e+001 3.000000e+000
    endloop
  endfacet
  facet normal 0.000000e+000 -0.000000e+000 1.000000e+000
    outer loop
      vertex   -7.392333e+001 9.830966e+001 3.000000e+000
      vertex   -6.917485e+001 1.037347e+002 3.000000e+000
      vertex   -6.936155e+001 1.037790e+002 3.000000e+000
    endloop
  endfacet
  facet normal -0.000000e+000 0.000000e+000 1.000000e+000
    outer loop
      vertex   -6.954186e+001 1.038446e+002 3.000000e+000
      vertex   -7.392333e+001 9.830966e+001 3.000000e+000
      vertex   -6.936155e+001 1.037790e+002 3.000000e+000
    endloop
  endfacet
  facet normal 0.000000e+000 0.000000e+000 1.000000e+000
    outer loop
      vertex   -6.954186e+001 1.038446e+002 3.000000e+000
      vertex   -6.971333e+001 1.039307e+002 3.000000e+000
      vertex   -7.392333e+001 9.830966e+001 3.000000e+000
    endloop
  endfacet
  facet normal 0.000000e+000 -0.000000e+000 1.000000e+000
    outer loop
      vertex   -7.392333e+001 9.830966e+001 3.000000e+000
      vertex   -6.971333e+001 1.039307e+002 3.000000e+000
      vertex   -6.987364e+001 1.040362e+002 3.000000e+000
    endloop
  endfacet
  facet normal -0.000000e+000 0.000000e+000 1.000000e+000
    outer loop
      vertex   -7.002063e+001 1.041595e+002 3.000000e+000
      vertex   -7.392333e+001 9.830966e+001 3.000000e+000
      vertex   -6.987364e+001 1.040362e+002 3.000000e+000
    endloop
  endfacet
  facet normal 0.000000e+000 0.000000e+000 1.000000e+000
    outer loop
      vertex   -7.002063e+001 1.041595e+002 3.000000e+000
      vertex   -7.015230e+001 1.042991e+002 3.000000e+000
      vertex   -7.392333e+001 9.830966e+001 3.000000e+000
    endloop
  endfacet
  facet normal 0.000000e+000 -0.000000e+000 1.000000e+000
    outer loop
      vertex   -7.392333e+001 9.830966e+001 3.000000e+000
      vertex   -7.015230e+001 1.042991e+002 3.000000e+000
      vertex   -7.026688e+001 1.044530e+002 3.000000e+000
    endloop
  endfacet
  facet normal -0.000000e+000 0.000000e+000 1.000000e+000
    outer loop
      vertex   -7.036282e+001 1.046191e+002 3.000000e+000
      vertex   -7.392333e+001 9.830966e+001 3.000000e+000
      vertex   -7.026688e+001 1.044530e+002 3.000000e+000
    endloop
  endfacet
  facet normal 0.000000e+000 0.000000e+000 1.000000e+000
    outer loop
      vertex   -7.036282e+001 1.046191e+002 3.000000e+000
      vertex   -7.043882e+001 1.047953e+002 3.000000e+000
      vertex   -7.392333e+001 9.830966e+001 3.000000e+000
    endloop
  endfacet
  facet normal 0.000000e+000 -0.000000e+000 1.000000e+000
    outer loop
      vertex   -7.392333e+001 9.830966e+001 3.000000e+000
      vertex   -7.043882e+001 1.047953e+002 3.000000e+000
      vertex   -7.049385e+001 1.049791e+002 3.000000e+000
    endloop
  endfacet
  facet normal -0.000000e+000 0.000000e+000 1.000000e+000
    outer loop
      vertex   -7.052717e+001 1.051681e+002 3.000000e+000
      vertex   -7.392333e+001 9.830966e+001 3.000000e+000
      vertex   -7.049385e+001 1.049791e+002 3.000000e+000
    endloop
  endfacet
  facet normal 0.000000e+000 0.000000e+000 1.000000e+000
    outer loop
      vertex   -7.052717e+001 1.051681e+002 3.000000e+000
      vertex   -7.053833e+001 1.053597e+002 3.000000e+000
      vertex   -7.392333e+001 9.830966e+001 3.000000e+000
    endloop
  endfacet
  facet normal 0.000000e+000 -0.000000e+000 1.000000e+000
    outer loop
      vertex   -7.392333e+001 9.830966e+001 3.000000e+000
      vertex   -7.053833e+001 1.053597e+002 3.000000e+000
      vertex   -7.392333e+001 1.124097e+002 3.000000e+000
    endloop
  endfacet
  facet normal 0.000000e+000 0.000000e+000 1.000000e+000
    outer loop
      vertex   -6.385333e+001 1.124097e+002 3.000000e+000
      vertex   -6.723833e+001 1.053597e+002 3.000000e+000
      vertex   -6.385333e+001 9.830966e+001 3.000000e+000
    endloop
  endfacet
  facet normal -2.313102e-028 1.000000e+000 3.014502e-014
    outer loop
      vertex   -5.922333e+001 1.124097e+002 1.942833e+000
      vertex   -5.922333e+001 1.124097e+002 1.000000e+000
      vertex   -6.385333e+001 1.124097e+002 1.942833e+000
    endloop
  endfacet
  facet normal 0.000000e+000 1.000000e+000 3.014502e-014
    outer loop
      vertex   -6.385333e+001 1.124097e+002 1.942833e+000
      vertex   -5.922333e+001 1.124097e+002 1.000000e+000
      vertex   -7.392333e+001 1.124097e+002 1.000000e+000
    endloop
  endfacet
  facet normal 1.491882e-015 1.000000e+000 1.421085e-014
    outer loop
      vertex   -7.392333e+001 1.124097e+002 3.000000e+000
      vertex   -6.385333e+001 1.124097e+002 1.942833e+000
      vertex   -7.392333e+001 1.124097e+002 1.000000e+000
    endloop
  endfacet
  facet normal -0.000000e+000 1.000000e+000 0.000000e+000
    outer loop
      vertex   -7.392333e+001 1.124097e+002 3.000000e+000
      vertex   -6.385333e+001 1.124097e+002 3.000000e+000
      vertex   -6.385333e+001 1.124097e+002 1.942833e+000
    endloop
  endfacet
  facet normal -1.000000e+000 0.000000e+000 0.000000e+000
    outer loop
      vertex   -7.392333e+001 1.114097e+002 0.000000e+000
      vertex   -7.392333e+001 9.930966e+001 0.000000e+000
      vertex   -7.392333e+001 1.124097e+002 1.000000e+000
    endloop
  endfacet
  facet normal -1.000000e+000 -0.000000e+000 0.000000e+000
    outer loop
      vertex   -7.392333e+001 1.124097e+002 1.000000e+000
      vertex   -7.392333e+001 9.930966e+001 0.000000e+000
      vertex   -7.392333e+001 9.830966e+001 1.000000e+000
    endloop
  endfacet
  facet normal -1.000000e+000 -0.000000e+000 -0.000000e+000
    outer loop
      vertex   -7.392333e+001 9.830966e+001 3.000000e+000
      vertex   -7.392333e+001 1.124097e+002 1.000000e+000
      vertex   -7.392333e+001 9.830966e+001 1.000000e+000
    endloop
  endfacet
  facet normal -1.000000e+000 0.000000e+000 0.000000e+000
    outer loop
      vertex   -7.392333e+001 9.830966e+001 3.000000e+000
      vertex   -7.392333e+001 1.124097e+002 3.000000e+000
      vertex   -7.392333e+001 1.124097e+002 1.000000e+000
    endloop
  endfacet
endsolid
