solid ascii
  facet normal 0.000000e+000 -9.824362e-001 1.865988e-001
    outer loop
      vertex   -1.035121e+002 1.801986e+002 1.488388e+001
      vertex   -1.035121e+002 1.773717e+002 8.881784e-015
      vertex   -9.191207e+001 1.801986e+002 1.488388e+001
    endloop
  endfacet
  facet normal 0.000000e+000 -9.824362e-001 1.865988e-001
    outer loop
      vertex   -9.191207e+001 1.801986e+002 1.488388e+001
      vertex   -1.035121e+002 1.773717e+002 8.881784e-015
      vertex   -9.191207e+001 1.773717e+002 8.881784e-015
    endloop
  endfacet
  facet normal 0.000000e+000 -9.940055e-001 -1.093304e-001
    outer loop
      vertex   -1.200121e+002 1.643355e+002 1.711049e+001
      vertex   -1.200121e+002 1.662175e+002 4.440892e-015
      vertex   -1.035121e+002 1.643355e+002 1.711049e+001
    endloop
  endfacet
  facet normal 0.000000e+000 -9.940055e-001 -1.093304e-001
    outer loop
      vertex   -1.035121e+002 1.643355e+002 1.711049e+001
      vertex   -1.200121e+002 1.662175e+002 4.440892e-015
      vertex   -1.035121e+002 1.662175e+002 4.440892e-015
    endloop
  endfacet
  facet normal 1.000000e+000 0.000000e+000 -0.000000e+000
    outer loop
      vertex   -1.035121e+002 1.773717e+002 8.881784e-015
      vertex   -1.035121e+002 1.801986e+002 1.488388e+001
      vertex   -1.035121e+002 1.662175e+002 4.440892e-015
    endloop
  endfacet
  facet normal 1.000000e+000 0.000000e+000 -0.000000e+000
    outer loop
      vertex   -1.035121e+002 1.662175e+002 4.440892e-015
      vertex   -1.035121e+002 1.801986e+002 1.488388e+001
      vertex   -1.035121e+002 1.643355e+002 1.711049e+001
    endloop
  endfacet
  facet normal 1.000000e+000 -0.000000e+000 -0.000000e+000
    outer loop
      vertex   -1.035121e+002 1.643355e+002 1.711049e+001
      vertex   -1.035121e+002 1.801986e+002 1.488388e+001
      vertex   -1.035121e+002 1.644797e+002 1.786946e+001
    endloop
  endfacet
  facet normal -1.000000e+000 5.369715e-016 -1.019895e-016
    outer loop
      vertex   -1.200121e+002 1.644797e+002 1.786946e+001
      vertex   -1.200121e+002 1.900230e+002 1.301789e+001
      vertex   -1.200121e+002 1.643355e+002 1.711049e+001
    endloop
  endfacet
  facet normal -1.000000e+000 5.369715e-016 -1.019895e-016
    outer loop
      vertex   -1.200121e+002 1.643355e+002 1.711049e+001
      vertex   -1.200121e+002 1.900230e+002 1.301789e+001
      vertex   -1.200121e+002 1.875504e+002 4.440892e-015
    endloop
  endfacet
  facet normal -1.000000e+000 6.661452e-016 7.326912e-017
    outer loop
      vertex   -1.200121e+002 1.662175e+002 4.440892e-015
      vertex   -1.200121e+002 1.643355e+002 1.711049e+001
      vertex   -1.200121e+002 1.875504e+002 4.440892e-015
    endloop
  endfacet
  facet normal 0.000000e+000 -9.824362e-001 1.865988e-001
    outer loop
      vertex   -1.035121e+002 1.643355e+002 1.711049e+001
      vertex   -1.035121e+002 1.644797e+002 1.786946e+001
      vertex   -1.200121e+002 1.643355e+002 1.711049e+001
    endloop
  endfacet
  facet normal 0.000000e+000 -9.824362e-001 1.865988e-001
    outer loop
      vertex   -1.200121e+002 1.643355e+002 1.711049e+001
      vertex   -1.035121e+002 1.644797e+002 1.786946e+001
      vertex   -1.200121e+002 1.644797e+002 1.786946e+001
    endloop
  endfacet
  facet normal 1.031945e-016 -9.940055e-001 -1.093304e-001
    outer loop
      vertex   -9.191207e+001 1.643355e+002 1.711049e+001
      vertex   -9.191207e+001 1.662175e+002 4.440892e-015
      vertex   -7.591207e+001 1.643355e+002 1.711049e+001
    endloop
  endfacet
  facet normal 0.000000e+000 -9.940055e-001 -1.093304e-001
    outer loop
      vertex   -7.591207e+001 1.643355e+002 1.711049e+001
      vertex   -9.191207e+001 1.662175e+002 4.440892e-015
      vertex   -7.591207e+001 1.662175e+002 4.440892e-015
    endloop
  endfacet
  facet normal 0.000000e+000 9.824362e-001 -1.865988e-001
    outer loop
      vertex   -7.591207e+001 1.900230e+002 1.301789e+001
      vertex   -7.591207e+001 1.875504e+002 4.440892e-015
      vertex   -1.200121e+002 1.900230e+002 1.301789e+001
    endloop
  endfacet
  facet normal 0.000000e+000 9.824362e-001 -1.865988e-001
    outer loop
      vertex   -1.200121e+002 1.900230e+002 1.301789e+001
      vertex   -7.591207e+001 1.875504e+002 4.440892e-015
      vertex   -1.200121e+002 1.875504e+002 4.440892e-015
    endloop
  endfacet
  facet normal -0.000000e+000 1.865988e-001 9.824362e-001
    outer loop
      vertex   -9.191207e+001 1.644797e+002 1.786946e+001
      vertex   -7.591207e+001 1.644797e+002 1.786946e+001
      vertex   -9.191207e+001 1.801986e+002 1.488388e+001
    endloop
  endfacet
  facet normal 7.173749e-016 1.865988e-001 9.824362e-001
    outer loop
      vertex   -9.191207e+001 1.801986e+002 1.488388e+001
      vertex   -7.591207e+001 1.644797e+002 1.786946e+001
      vertex   -7.591207e+001 1.900230e+002 1.301789e+001
    endloop
  endfacet
  facet normal 0.000000e+000 1.865988e-001 9.824362e-001
    outer loop
      vertex   -1.035121e+002 1.801986e+002 1.488388e+001
      vertex   -7.591207e+001 1.900230e+002 1.301789e+001
      vertex   -1.200121e+002 1.900230e+002 1.301789e+001
    endloop
  endfacet
  facet normal -6.873549e-016 1.865988e-001 9.824362e-001
    outer loop
      vertex   -1.200121e+002 1.644797e+002 1.786946e+001
      vertex   -1.035121e+002 1.801986e+002 1.488388e+001
      vertex   -1.200121e+002 1.900230e+002 1.301789e+001
    endloop
  endfacet
  facet normal -0.000000e+000 1.865988e-001 9.824362e-001
    outer loop
      vertex   -1.200121e+002 1.644797e+002 1.786946e+001
      vertex   -1.035121e+002 1.644797e+002 1.786946e+001
      vertex   -1.035121e+002 1.801986e+002 1.488388e+001
    endloop
  endfacet
  facet normal 0.000000e+000 1.865988e-001 9.824362e-001
    outer loop
      vertex   -9.191207e+001 1.801986e+002 1.488388e+001
      vertex   -7.591207e+001 1.900230e+002 1.301789e+001
      vertex   -1.035121e+002 1.801986e+002 1.488388e+001
    endloop
  endfacet
  facet normal 1.000000e+000 -5.369715e-016 1.019895e-016
    outer loop
      vertex   -7.591207e+001 1.644797e+002 1.786946e+001
      vertex   -7.591207e+001 1.643355e+002 1.711049e+001
      vertex   -7.591207e+001 1.900230e+002 1.301789e+001
    endloop
  endfacet
  facet normal 1.000000e+000 -5.369715e-016 1.019895e-016
    outer loop
      vertex   -7.591207e+001 1.900230e+002 1.301789e+001
      vertex   -7.591207e+001 1.643355e+002 1.711049e+001
      vertex   -7.591207e+001 1.875504e+002 4.440892e-015
    endloop
  endfacet
  facet normal 1.000000e+000 -6.661452e-016 -7.326912e-017
    outer loop
      vertex   -7.591207e+001 1.875504e+002 4.440892e-015
      vertex   -7.591207e+001 1.643355e+002 1.711049e+001
      vertex   -7.591207e+001 1.662175e+002 4.440892e-015
    endloop
  endfacet
  facet normal 0.000000e+000 3.981367e-016 -1.000000e+000
    outer loop
      vertex   -9.191207e+001 1.662175e+002 4.440892e-015
      vertex   -9.191207e+001 1.773717e+002 8.881784e-015
      vertex   -7.591207e+001 1.662175e+002 4.440892e-015
    endloop
  endfacet
  facet normal -2.775558e-016 1.848924e-031 -1.000000e+000
    outer loop
      vertex   -7.591207e+001 1.662175e+002 4.440892e-015
      vertex   -9.191207e+001 1.773717e+002 8.881784e-015
      vertex   -7.591207e+001 1.875504e+002 4.440892e-015
    endloop
  endfacet
  facet normal -0.000000e+000 -4.362893e-016 -1.000000e+000
    outer loop
      vertex   -7.591207e+001 1.875504e+002 4.440892e-015
      vertex   -9.191207e+001 1.773717e+002 8.881784e-015
      vertex   -1.035121e+002 1.773717e+002 8.881784e-015
    endloop
  endfacet
  facet normal 2.691450e-016 -1.792896e-031 -1.000000e+000
    outer loop
      vertex   -1.200121e+002 1.875504e+002 4.440892e-015
      vertex   -1.035121e+002 1.773717e+002 8.881784e-015
      vertex   -1.200121e+002 1.662175e+002 4.440892e-015
    endloop
  endfacet
  facet normal 0.000000e+000 -4.362893e-016 -1.000000e+000
    outer loop
      vertex   -1.200121e+002 1.875504e+002 4.440892e-015
      vertex   -7.591207e+001 1.875504e+002 4.440892e-015
      vertex   -1.035121e+002 1.773717e+002 8.881784e-015
    endloop
  endfacet
  facet normal 0.000000e+000 3.981367e-016 -1.000000e+000
    outer loop
      vertex   -1.035121e+002 1.773717e+002 8.881784e-015
      vertex   -1.035121e+002 1.662175e+002 4.440892e-015
      vertex   -1.200121e+002 1.662175e+002 4.440892e-015
    endloop
  endfacet
  facet normal -1.000000e+000 -1.274037e-015 2.419840e-016
    outer loop
      vertex   -9.191207e+001 1.773717e+002 8.881784e-015
      vertex   -9.191207e+001 1.662175e+002 4.440892e-015
      vertex   -9.191207e+001 1.801986e+002 1.488388e+001
    endloop
  endfacet
  facet normal -1.000000e+000 -9.098890e-016 -1.000784e-016
    outer loop
      vertex   -9.191207e+001 1.801986e+002 1.488388e+001
      vertex   -9.191207e+001 1.662175e+002 4.440892e-015
      vertex   -9.191207e+001 1.643355e+002 1.711049e+001
    endloop
  endfacet
  facet normal -1.000000e+000 -8.725786e-016 1.657330e-016
    outer loop
      vertex   -9.191207e+001 1.644797e+002 1.786946e+001
      vertex   -9.191207e+001 1.801986e+002 1.488388e+001
      vertex   -9.191207e+001 1.643355e+002 1.711049e+001
    endloop
  endfacet
  facet normal -2.077079e-016 -9.824362e-001 1.865988e-001
    outer loop
      vertex   -7.591207e+001 1.643355e+002 1.711049e+001
      vertex   -7.591207e+001 1.644797e+002 1.786946e+001
      vertex   -9.191207e+001 1.643355e+002 1.711049e+001
    endloop
  endfacet
  facet normal 0.000000e+000 -9.824362e-001 1.865988e-001
    outer loop
      vertex   -9.191207e+001 1.643355e+002 1.711049e+001
      vertex   -7.591207e+001 1.644797e+002 1.786946e+001
      vertex   -9.191207e+001 1.644797e+002 1.786946e+001
    endloop
  endfacet
endsolid
